<svg xmlns="http://www.w3.org/2000/svg" width="55" height="56" fill="none" viewBox="0 0 55 56"><path fill="#fff" d="M23.994 29.872v-1.285c0-.362.28-.643.642-.643H38.78c.362 0 .643.281.643.643v1.285a.635.635 0 0 1-.643.643H24.636a.635.635 0 0 1-.642-.643M24.636 33.087H38.78c.362 0 .643.281.643.643v1.285a.635.635 0 0 1-.643.643H24.636a.635.635 0 0 1-.642-.643V33.73c0-.362.28-.643.642-.643M24.636 38.23H38.78c.362 0 .643.28.643.642v1.286a.635.635 0 0 1-.643.643H24.636a.635.635 0 0 1-.642-.643v-1.286c0-.361.28-.642.642-.642"/><path fill="#fff" fill-rule="evenodd" d="M16.28 21.815a7.415 7.415 0 1 1 7.173-9.3h12.755c1.065 0 2.551.623 3.294 1.366l6.268 6.268c.744.743 1.366 2.23 1.366 3.295v23.143a1.93 1.93 0 0 1-1.928 1.928h-27a1.93 1.93 0 0 1-1.929-1.928zm2.57-.458a7.42 7.42 0 0 0 4.813-6.27h10.616v8.357c0 1.065.864 1.928 1.929 1.928h8.357v20.572H18.851zm18.824-5.668c-.14-.14-.482-.321-.823-.442v7.554h7.553c-.12-.341-.301-.683-.442-.824zM17.28 15.4h4v-2h-4v-4h-2v4h-4v2h4v4h2z" clip-rule="evenodd"/></svg>