<svg xmlns="http://www.w3.org/2000/svg" width="18" height="21" fill="none" viewBox="0 0 18 21"><path fill="#272733" d="M16.813 4.609 13.33 1.127c-.413-.413-1.24-.76-1.83-.76h-10C.908.368.428.848.428 1.44v17.858c0 .591.48 1.07 1.071 1.07h15c.592 0 1.072-.479 1.072-1.07V6.439c0-.591-.346-1.417-.76-1.83m-4.956-2.723c.19.067.38.167.458.245l3.493 3.494c.078.078.179.267.246.457h-4.197zm4.286 17.053H1.857V1.796h8.572V6.44c0 .592.48 1.072 1.071 1.072h4.643zM4.714 9.296v.715c0 .2.157.357.358.357h7.857c.2 0 .357-.156.357-.357v-.715c0-.2-.156-.357-.357-.357H5.072c-.201 0-.358.157-.358.357m8.215 2.5H5.072c-.201 0-.358.157-.358.358v.714c0 .2.157.357.358.357h7.857c.2 0 .357-.156.357-.357v-.714c0-.201-.156-.357-.357-.357m0 2.858H5.072c-.201 0-.358.156-.358.357v.714c0 .201.157.357.358.357h7.857c.2 0 .357-.156.357-.357v-.714c0-.201-.156-.357-.357-.357"/></svg>