<svg xmlns="http://www.w3.org/2000/svg" width="55" height="56" fill="none" viewBox="0 0 55 56"><path fill="#fff" d="M37.786 35.964a2.59 2.59 0 0 1-2.572 2.572 2.59 2.59 0 0 1-2.571-2.572 2.59 2.59 0 0 1 2.571-2.571 2.59 2.59 0 0 1 2.572 2.571M22.357 20.536a2.59 2.59 0 0 1-2.571 2.571 2.59 2.59 0 0 1-2.572-2.571 2.59 2.59 0 0 1 2.572-2.572 2.59 2.59 0 0 1 2.571 2.572m20.571 15.428a7.716 7.716 0 0 0-7.714-7.714 7.716 7.716 0 0 0-7.714 7.714 7.716 7.716 0 0 0 7.714 7.715 7.716 7.716 0 0 0 7.714-7.715M41 14.107c0-.703-.583-1.286-1.286-1.286H36.5c-.402 0-.784.201-1.025.523L14.261 41.63c-.16.22-.261.482-.261.763 0 .703.582 1.286 1.286 1.286H18.5c.402 0 .783-.201 1.024-.523L40.74 14.871c.16-.222.26-.483.26-.764m-13.5 6.429a7.716 7.716 0 0 0-7.714-7.715 7.716 7.716 0 0 0-7.715 7.715 7.716 7.716 0 0 0 7.715 7.714 7.716 7.716 0 0 0 7.714-7.714"/></svg>