<svg width="21" height="20" viewBox="0 0 21 20" fill="none" xmlns="http://www.w3.org/2000/svg">
<path d="M16.7508 14.8491C16.7508 14.9914 16.6253 15.117 16.483 15.117H4.16155C4.01925 15.117 3.89369 14.9914 3.89369 14.8491V8.42057C4.06948 8.62146 4.262 8.80561 4.47126 8.97302C5.66825 9.89378 6.87361 10.8313 8.03711 11.8023C8.6649 12.3296 9.44336 12.9741 10.3139 12.9741H10.3223H10.3306C11.2012 12.9741 11.9796 12.3296 12.6074 11.8023C13.7709 10.8313 14.9763 9.89378 16.1733 8.97302C16.3825 8.80561 16.5751 8.62146 16.7508 8.42057V14.8491ZM16.7508 6.05171C16.7508 6.7632 16.0645 7.69233 15.5204 8.11923C14.3987 8.99813 13.2771 9.88541 12.1638 10.7727C11.7201 11.1326 10.9166 11.9027 10.3306 11.9027H10.3223H10.3139C9.72796 11.9027 8.92439 11.1326 8.48075 10.7727C7.36747 9.88541 6.24581 8.99813 5.12416 8.11923C4.37081 7.52492 3.89369 6.69624 3.89369 5.742C3.89369 5.5997 4.01925 5.47414 4.16155 5.47414H16.483C16.8011 5.47414 16.7508 5.84244 16.7508 6.05171ZM17.8223 5.742C17.8223 5.00539 17.2196 4.40271 16.483 4.40271H4.16155C3.42494 4.40271 2.82227 5.00539 2.82227 5.742V14.8491C2.82227 15.5857 3.42494 16.1884 4.16155 16.1884H16.483C17.2196 16.1884 17.8223 15.5857 17.8223 14.8491V5.742Z" fill="#3E9CDC"/>
</svg>
