<svg width="21" height="20" viewBox="0 0 21 20" fill="none" xmlns="http://www.w3.org/2000/svg">
<path d="M15.1807 12.2863C15.1807 12.9366 15.0576 13.5079 14.8115 14.0001C14.5654 14.4923 14.2344 14.8995 13.8184 15.2218C13.3262 15.6085 12.7842 15.8839 12.1924 16.048C11.6064 16.212 10.8594 16.2941 9.95117 16.2941H4.71289V3.20715H9.33594C10.2969 3.20715 11.0234 3.24524 11.5156 3.32141C12.0137 3.39172 12.4795 3.54407 12.9131 3.77844C13.3818 4.0304 13.7305 4.36731 13.959 4.78918C14.1934 5.21106 14.3105 5.69739 14.3105 6.24817C14.3105 6.88684 14.1494 7.4552 13.8271 7.95325C13.5107 8.45129 13.0713 8.8175 12.5088 9.05188V9.12219C13.3174 9.29211 13.9648 9.64075 14.4512 10.1681C14.9375 10.6896 15.1807 11.3956 15.1807 12.2863ZM10.9707 6.90735C10.9707 6.69641 10.915 6.47961 10.8037 6.25696C10.6982 6.0343 10.5312 5.87317 10.3027 5.77356C10.0859 5.67981 9.82812 5.63 9.5293 5.62415C9.23633 5.61243 8.79688 5.60657 8.21094 5.60657H7.98242V8.37512H8.39551C8.95801 8.37512 9.35059 8.36926 9.57324 8.35754C9.80176 8.34583 10.0361 8.2843 10.2764 8.17297C10.54 8.04993 10.7217 7.88 10.8213 7.66321C10.9209 7.44641 10.9707 7.19446 10.9707 6.90735ZM11.7969 12.2247C11.7969 11.8204 11.7148 11.504 11.5508 11.2755C11.3867 11.047 11.1406 10.8741 10.8125 10.757C10.6133 10.6808 10.3379 10.6398 9.98633 10.6339C9.64062 10.6222 9.1748 10.6163 8.58887 10.6163H7.98242V13.8947H8.1582C9.01367 13.8947 9.60547 13.8888 9.93359 13.8771C10.2617 13.8654 10.5957 13.7863 10.9355 13.6398C11.2344 13.5109 11.4512 13.3234 11.5859 13.0773C11.7266 12.8253 11.7969 12.5411 11.7969 12.2247Z" fill="#3E9CDC"/>
</svg>
