<svg xmlns="http://www.w3.org/2000/svg" width="21" height="20" fill="none" viewBox="0 0 21 20"><g clip-path="url(#uwu__qiwi_svg__a)"><g clip-path="url(#uwu__qiwi_svg__b)"><path fill="#3e9cdc" d="M16.912 13.456c.06.388-.067.552-.195.552-.129 0-.314-.158-.521-.47-.208-.313-.278-.661-.178-.84a.3.3 0 0 1 .17-.126.3.3 0 0 1 .213.022c.34.124.474.63.51.862m-1.888.85c.41.335.534.733.318 1.013a.688.688 0 0 1-.549.238 1 1 0 0 1-.627-.218c-.371-.314-.48-.825-.238-1.114a.53.53 0 0 1 .435-.176c.244.008.479.099.66.257m-.684 3.23c1.762 0 3.674.585 5.791 2.4.211.18.493-.045.309-.271-2.08-2.54-4.008-3.024-5.922-3.432-2.346-.502-3.554-1.78-4.4-3.182-.167-.279-.243-.23-.257.13a7.7 7.7 0 0 0 .124 1.589h-.286a6.23 6.23 0 0 1-3.377-.99 5.93 5.93 0 0 1-2.239-2.64 5.7 5.7 0 0 1-.346-3.397 5.82 5.82 0 0 1 1.664-3.01 6.15 6.15 0 0 1 3.112-1.61 6.27 6.27 0 0 1 3.512.335 6.04 6.04 0 0 1 2.728 2.166 5.74 5.74 0 0 1 .986 3.95 9.4 9.4 0 0 0-1.93-.035c-.232.02-.198.13-.025.154 2.004.35 3.39 1.55 3.706 3.74a.05.05 0 0 0 .014.03.056.056 0 0 0 .088-.008 8.66 8.66 0 0 0 1.24-5.607 8.78 8.78 0 0 0-2.555-5.176A9.3 9.3 0 0 0 10.989.081a9.46 9.46 0 0 0-5.825 1.07 9 9 0 0 0-3.94 4.286 8.63 8.63 0 0 0-.416 5.72 8.9 8.9 0 0 0 3.28 4.779 9.4 9.4 0 0 0 5.612 1.849c1.342.004 2.68-.25 4.64-.25z"/></g></g><defs><clipPath id="uwu__qiwi_svg__a"><path fill="#fff" d="M.5 0h20v20H.5z"/></clipPath><clipPath id="uwu__qiwi_svg__b"><path fill="#fff" d="M.5 0h20v20H.5z"/></clipPath></defs></svg>