<svg xmlns="http://www.w3.org/2000/svg" width="21" height="20" fill="none" viewBox="0 0 21 20"><g clip-path="url(#uwu__web_svg__a)"><path fill="#3e9cdc" d="M9.341 0c1.41 0 2.752.323 3.956.901.189.085.379.187.567.29l-.825.73L11.8.647l-2.133 1.87-1.256-1.343L4.491 4.66 7 7.396l-.98.85 2.477 2.738-.98.85 3.544 3.893 2.097-1.904 1.824 2.04c-.362.273-.757.546-1.187.783a9.07 9.07 0 0 1-4.438 1.156c-4.97 0-9.012-3.995-9.012-8.909C.328 4.013 4.37 0 9.34 0M7.69 8.349l2.15-1.905 1.926 2.126-2.15 1.904zm1.53 3.672 2.133-1.92 1.944 2.124-2.15 1.905zM6.16 4.727l2.15-1.904 1.925 2.125-2.15 1.904zm3.938-1.02 1.6-1.429 1.444 1.582-1.6 1.445zm2.855 6.546 1.6-1.428 1.444 1.597-1.6 1.43zm1.41 3.214 1.6-1.429 1.444 1.582-1.6 1.444zm.654-7.346 1.066-.952.963 1.054-1.066.952zm-1.376-3.146 1.066-.968.964 1.07-1.067.953zm2.735 6.292 1.066-.952.98 1.054-1.083.952zm-4.799-2.364 1.6-1.428 1.444 1.581-1.599 1.429z"/></g><defs><clipPath id="uwu__web_svg__a"><path fill="#fff" d="M.5 0h20v20H.5z"/></clipPath></defs></svg>