<svg xmlns="http://www.w3.org/2000/svg" width="21" height="20" fill="none" viewBox="0 0 21 20"><path fill="#3e9cdc" d="M15.18 12.286q0 .976-.368 1.714-.37.739-.994 1.222a4.6 4.6 0 0 1-1.626.826q-.88.246-2.24.246h-5.24V3.207h4.624q1.44 0 2.18.114.746.106 1.397.457.703.379 1.046 1.011.351.633.351 1.46 0 .957-.483 1.704a2.8 2.8 0 0 1-1.318 1.099v.07q1.213.255 1.942 1.046.73.783.73 2.118m-4.21-5.379q0-.315-.166-.65a.96.96 0 0 0-.501-.483 2 2 0 0 0-.774-.15 36 36 0 0 0-1.318-.017h-.229v2.768h.414q.843 0 1.177-.017.343-.018.703-.185.396-.184.545-.51.15-.325.15-.756m.827 5.318q0-.607-.246-.95t-.739-.518q-.298-.114-.826-.123a44 44 0 0 0-1.397-.018h-.607v3.279h.176q1.283 0 1.776-.018.492-.017 1.002-.237.447-.195.65-.563.21-.378.21-.852"/></svg>