<svg width="21" height="20" viewBox="0 0 21 20" fill="none" xmlns="http://www.w3.org/2000/svg">
<path fill-rule="evenodd" clip-rule="evenodd" d="M3.7795 9.93064C3.7795 8.94658 3.8627 8.32207 5.91777 6.80081C7.61915 5.54132 13.0727 1.23737 13.0727 1.23737V8.42203H17.2199V18.7626H5.07484C4.36242 18.7626 3.7793 18.1843 3.7793 17.4778L3.7795 9.9307V9.93064Z" fill="#3E9CDC"/>
<path fill-rule="evenodd" clip-rule="evenodd" d="M13.073 8.42194V12.5849L5.45215 17.7335L15.0874 14.6246V8.42194H13.073Z" fill="black" fill-opacity="0.2"/>
<path fill-rule="evenodd" clip-rule="evenodd" d="M9.59025 8.20678C10.0359 7.68017 10.6868 7.4943 11.0442 7.79166C11.4016 8.08909 11.3301 8.75713 10.8845 9.28374C10.4391 9.81029 9.78796 9.99596 9.43057 9.69853C9.07318 9.40117 9.14482 8.73327 9.59025 8.20672V8.20678Z" fill="#231F20"/>
</svg>
