<svg width="55" height="56" viewBox="0 0 55 56" fill="none" xmlns="http://www.w3.org/2000/svg">
<path d="M23.9935 29.8724V28.5867C23.9935 28.2251 24.2748 27.9438 24.6364 27.9438H38.7793C39.1409 27.9438 39.4221 28.2251 39.4221 28.5867V29.8724C39.4221 30.234 39.1409 30.5153 38.7793 30.5153H24.6364C24.2748 30.5153 23.9935 30.234 23.9935 29.8724Z" fill="white"/>
<path d="M24.6364 33.0867H38.7793C39.1409 33.0867 39.4221 33.368 39.4221 33.7296V35.0153C39.4221 35.3769 39.1409 35.6581 38.7793 35.6581H24.6364C24.2748 35.6581 23.9935 35.3769 23.9935 35.0153V33.7296C23.9935 33.368 24.2748 33.0867 24.6364 33.0867Z" fill="white"/>
<path d="M24.6364 38.2296H38.7793C39.1409 38.2296 39.4221 38.5108 39.4221 38.8724V40.1581C39.4221 40.5197 39.1409 40.801 38.7793 40.801H24.6364C24.2748 40.801 23.9935 40.5197 23.9935 40.1581V38.8724C23.9935 38.5108 24.2748 38.2296 24.6364 38.2296Z" fill="white"/>
<path fill-rule="evenodd" clip-rule="evenodd" d="M16.2793 21.8148C12.1841 21.8148 8.86426 18.495 8.86426 14.3998C8.86426 10.3046 12.1841 6.98479 16.2793 6.98479C19.7233 6.98479 22.6189 9.33276 23.4527 12.5153H36.2078C37.2726 12.5153 38.7592 13.138 39.5025 13.8813L45.7703 20.1492C46.5136 20.8925 47.1364 22.3791 47.1364 23.4438V46.5867C47.1364 47.6514 46.2726 48.5153 45.2078 48.5153H18.2078C17.1431 48.5153 16.2793 47.6514 16.2793 46.5867L16.2793 21.8148ZM18.8507 21.3568C21.4732 20.3871 23.3974 17.977 23.6629 15.0867H34.2793V23.4438C34.2793 24.5086 35.1431 25.3724 36.2078 25.3724H44.565V45.9438H18.8507V21.3568ZM37.6743 15.6894C37.5337 15.5488 37.1922 15.368 36.8507 15.2474V22.801H44.4043C44.2837 22.4595 44.1029 22.118 43.9623 21.9773L37.6743 15.6894ZM17.2793 15.3998H21.2793V13.3998H17.2793V9.39983H15.2793V13.3998H11.2793V15.3998H15.2793V19.3998H17.2793V15.3998Z" fill="white"/>
</svg>
